<svg id="Layer_1" data-name="Layer 1" xmlns="http://www.w3.org/2000/svg" viewBox="0 0 627.21 627.21"><defs><style>.cls-1{fill:#e8a622;}</style></defs><title>wavy</title><path class="cls-1" d="M134.86,571.29c-1.61-1.12-3.2-2.24-4.78-3.39C131.66,569.05,133.25,570.17,134.86,571.29Z"/><path class="cls-1" d="M127.84,566.27c-1.58-1.16-3.15-2.35-4.72-3.54C124.69,563.92,126.26,565.11,127.84,566.27Z"/><path class="cls-1" d="M158.5,586.22q-3.45-2-6.83-4Q155,584.25,158.5,586.22Z"/><path class="cls-1" d="M165.91,590.3q-2.68-1.42-5.34-2.93Q163.23,588.87,165.91,590.3Z"/><path class="cls-1" d="M121.11,561.18c-1.82-1.41-3.61-2.85-5.4-4.3C117.5,558.33,119.29,559.77,121.11,561.18Z"/><path class="cls-1" d="M151.27,582q-3.68-2.22-7.28-4.55Q147.59,579.75,151.27,582Z"/><path class="cls-1" d="M142.52,576.45c-1.85-1.21-3.7-2.43-5.52-3.67C138.82,574,140.67,575.24,142.52,576.45Z"/><path class="cls-1" d="M41.9,470.3q-1.69-2.94-3.33-5.93Q40.21,467.36,41.9,470.3Z"/><path class="cls-1" d="M64.15,461.33c37.73,2.72,47.93,30.16,83.15,30.16,38.44,0,44.76-30.16,83.16-30.16s44.76,30.16,83.15,30.16,44.71-30.16,83.15-30.16,44.71,30.16,83.15,30.16c35.23,0,45.42-27.44,83.15-30.16a88.79,88.79,0,0,1,26.1,2.13,312.27,312.27,0,0,0,38.05-149.85C627.21,140.41,486.81,0,313.61,0S0,140.41,0,313.61A312.17,312.17,0,0,0,38.06,463.46,88.7,88.7,0,0,1,64.15,461.33Zm61.47-319.65a29.29,29.29,0,0,1,21.55-8.77q17,0,23,9.64T183,175.49l44.59,152.79,40.57-142q6.51-22.29,9.65-30.43t11.77-15.53q8.64-7.4,23.67-7.39,15.27,0,23.92,7.39t12.15,16q3.49,8.64,9.77,29.93l40.57,142,45.09-152.79Q449.25,159,452,151.57a31.77,31.77,0,0,1,9.26-13q6.51-5.62,18.79-5.63a30,30,0,0,1,21.29,8.51q9,8.52,9,20,0,10.53-7.77,31.81L446.73,357.08q-7.26,20.81-11.27,30.06a44.76,44.76,0,0,1-12.65,16.53q-8.64,7.26-23.66,7.27-15.54,0-24.43-7.77a46.78,46.78,0,0,1-13.15-19q-4.26-11.28-9.26-29.31L313.23,221.58,275.41,354.83q-7.52,27.8-16.28,41.95t-30.81,14.16q-11.28,0-19.16-4.39A36.81,36.81,0,0,1,196,394a93.86,93.86,0,0,1-9.27-19.29q-4-11.14-6.26-17.66L125.12,193.27q-8.27-23-8.26-31.81Q116.86,150.45,125.62,141.68Z"/><path class="cls-1" d="M46,477.14c-1-1.59-1.92-3.2-2.87-4.81C44.05,473.94,45,475.55,46,477.14Z"/><path class="cls-1" d="M114.58,556q-3.31-2.72-6.53-5.51Q111.28,553.26,114.58,556Z"/><path class="cls-1" d="M54.64,490.5c-1-1.39-1.9-2.8-2.83-4.21C52.74,487.7,53.68,489.11,54.64,490.5Z"/><path class="cls-1" d="M50.22,483.87q-1.42-2.19-2.8-4.41Q48.8,481.68,50.22,483.87Z"/><path class="cls-1" d="M490.21,572.78q-2.73,1.86-5.51,3.67Q487.48,574.64,490.21,572.78Z"/><path class="cls-1" d="M519.16,550.45q-3.23,2.81-6.52,5.51Q515.94,553.24,519.16,550.45Z"/><path class="cls-1" d="M585.31,470.3c1.14-2,2.25-3.95,3.34-5.94C587.56,466.35,586.45,468.34,585.31,470.3Z"/><path class="cls-1" d="M563.06,491.7c-37.73,2.73-47.92,30.16-83.15,30.16-38.44,0-44.76-30.16-83.15-30.16S352,521.86,313.61,521.86s-44.72-30.16-83.15-30.16-44.72,30.16-83.16,30.16c-35.22,0-45.42-27.43-83.15-30.16a82.85,82.85,0,0,0-8.79-.15A315.82,315.82,0,0,0,108,550.37c11.23,6.9,22.39,13.26,39.35,13.26,38.44,0,44.76-30.16,83.16-30.16s44.76,30.16,83.15,30.16,44.71-30.16,83.15-30.16,44.71,30.16,83.15,30.16c17,0,28.12-6.36,39.35-13.26a315.82,315.82,0,0,0,52.59-58.82A82.9,82.9,0,0,0,563.06,491.7Z"/><path class="cls-1" d="M581.24,477.14q1.46-2.38,2.87-4.82Q582.7,474.75,581.24,477.14Z"/><path class="cls-1" d="M577,483.87q1.43-2.19,2.8-4.41Q578.41,481.68,577,483.87Z"/><path class="cls-1" d="M572.57,490.5c1-1.39,1.9-2.8,2.83-4.21C574.47,487.7,573.53,489.11,572.57,490.5Z"/><path class="cls-1" d="M396.76,563.84C358.32,563.84,352,594,313.61,594s-44.72-30.17-83.15-30.17c-30.73,0-40.92,19.32-63.47,27a314,314,0,0,0,293.23,0C437.67,583.16,427.48,563.84,396.76,563.84Z"/><path class="cls-1" d="M475.54,582.21c-2.25,1.37-4.53,2.7-6.83,4C471,584.91,473.29,583.58,475.54,582.21Z"/><path class="cls-1" d="M511.48,556.89q-2.66,2.18-5.37,4.29Q508.83,559.07,511.48,556.89Z"/><path class="cls-1" d="M466.64,587.37q-2.65,1.5-5.34,2.93Q464,588.88,466.64,587.37Z"/><path class="cls-1" d="M483.22,577.42c-2.4,1.55-4.83,3.07-7.27,4.55C478.39,580.49,480.82,579,483.22,577.42Z"/><path class="cls-1" d="M504.08,562.73c-1.56,1.19-3.12,2.38-4.71,3.54C501,565.11,502.52,563.92,504.08,562.73Z"/><path class="cls-1" d="M497.13,567.91c-1.58,1.14-3.17,2.26-4.77,3.38C494,570.17,495.55,569.05,497.13,567.91Z"/></svg>