<svg xmlns="http://www.w3.org/2000/svg" width="31.026" height="24.581" viewBox="0 0 31.026 24.581">
  <defs>
    <style>
      .cls-1 {
        fill: none;
        stroke: #e8a622;
        stroke-width: 2px;
      }
    </style>
  </defs>
  <path id="comment_2" data-name="comment 2" class="cls-1" d="M28.977,42.481c0,5.795-6.5,10.481-14.512,10.481a19.06,19.06,0,0,1-6.747-1.2A14.043,14.043,0,0,1,.542,54.57a.541.541,0,0,1-.579-.388C-.1,53.93.1,53.774.3,53.587A6.539,6.539,0,0,0,2.91,48.82,8.748,8.748,0,0,1-.048,42.481C-.048,36.691,6.453,32,14.465,32S28.977,36.691,28.977,42.481Z" transform="translate(1.049 -31)"/>
</svg>
