<svg xmlns="http://www.w3.org/2000/svg" width="33.611" height="23.021" viewBox="0 0 33.611 23.021">
  <defs>
    <style>
      .cls-1 {
        fill: none;
        stroke: #fff;
      }
    </style>
  </defs>
  <path id="home" class="cls-1" d="M27.686,46.085V53.1a1.274,1.274,0,0,1-1.359,1.176H19.759a.641.641,0,0,1-.679-.588V48.206a.641.641,0,0,0-.679-.588H14.324a.641.641,0,0,0-.679.588v5.487a.641.641,0,0,1-.679.588H6.4A1.274,1.274,0,0,1,5.038,53.1v-7.02a.561.561,0,0,1,.249-.456l10.644-7.584a.775.775,0,0,1,.866,0l10.644,7.584a.57.57,0,0,1,.243.456ZM32.419,43.1l-4.733-3.375V32.94a.641.641,0,0,0-.679-.588H23.836a.641.641,0,0,0-.679.588V36.5l-5.067-3.611a3.048,3.048,0,0,0-3.454,0L.305,43.1a.537.537,0,0,0-.091.828l1.444,1.519a.756.756,0,0,0,.957.078l13.317-9.49a.775.775,0,0,1,.866,0l13.317,9.49a.756.756,0,0,0,.957-.078l1.444-1.519A.537.537,0,0,0,32.419,43.1Z" transform="translate(0.442 -31.76)"/>
</svg>
