<svg xmlns="http://www.w3.org/2000/svg" width="52.302" height="41.089" viewBox="0 0 52.302 41.089">
  <defs>
    <style>
      .cls-1 {
        fill: none;
        stroke: #e8a622;
        stroke-width: 2px;
      }
    </style>
  </defs>
  <path id="home" class="cls-1" d="M42.475,56.72V69.177a2.081,2.081,0,0,1-2.086,2.086H30.305a1.046,1.046,0,0,1-1.043-1.043V60.484a1.046,1.046,0,0,0-1.043-1.043H21.96a1.046,1.046,0,0,0-1.043,1.043V70.22a1.046,1.046,0,0,1-1.043,1.043H9.79A2.081,2.081,0,0,1,7.7,69.177V56.72a1.044,1.044,0,0,1,.382-.808L24.429,42.455a1.059,1.059,0,0,1,1.33,0L42.1,55.912a1.064,1.064,0,0,1,.374.808Zm7.267-5.294-7.267-5.989V33.4a1.046,1.046,0,0,0-1.043-1.043H36.564A1.046,1.046,0,0,0,35.521,33.4v6.311L27.741,33.3a4.168,4.168,0,0,0-5.3,0l-22,18.125A1.046,1.046,0,0,0,.3,52.9L2.514,55.59a1.046,1.046,0,0,0,1.469.139L24.429,38.891a1.059,1.059,0,0,1,1.33,0L46.2,55.729a1.046,1.046,0,0,0,1.469-.139L49.89,52.9A1.046,1.046,0,0,0,49.742,51.426Z" transform="translate(1.062 -31.174)"/>
</svg>
