<svg xmlns="http://www.w3.org/2000/svg" width="52.066" height="33.86" viewBox="0 0 52.066 33.86">
  <defs>
    <style>
      .cls-1 {
        fill: none;
        stroke: #e8a622;
        stroke-width: 2px;
      }
    </style>
  </defs>
  <path id="people" class="cls-1" d="M36.136,23.654a6.827,6.827,0,1,0-6.827-6.827A6.813,6.813,0,0,0,36.136,23.654Zm-18.206,0A6.827,6.827,0,1,0,11.1,16.827,6.813,6.813,0,0,0,17.93,23.654Zm0,4.551C12.616,28.206,2,30.868,2,36.171V41.86H33.86V36.171C33.86,30.868,23.244,28.206,17.93,28.206Zm18.206,0c-.66,0-1.4.046-2.2.125,2.64,1.9,4.472,4.46,4.472,7.84V41.86H52.066V36.171C52.066,30.868,41.45,28.206,36.136,28.206Z" transform="translate(-1 -9)"/>
</svg>
