<svg xmlns="http://www.w3.org/2000/svg" width="52.152" height="59.668" viewBox="0 0 52.152 59.668">
  <defs>
    <style>
      .cls-1 {
        fill: none;
        stroke: #e8a622;
        stroke-width: 2px;
      }
    </style>
  </defs>
  <path id="bell_2" data-name="bell 2" class="cls-1" d="M48.425,41.231c-2.483-2.506-5.567-5.625-5.567-17.8A17.977,17.977,0,0,0,27.94,5.651a3.571,3.571,0,1,0-5.879,0A17.977,17.977,0,0,0,7.143,23.428c0,12.178-3.085,15.3-5.568,17.8A5.417,5.417,0,0,0,5.363,50.46H17.857a7.143,7.143,0,1,0,14.286,0H44.637A5.417,5.417,0,0,0,48.425,41.231ZM25,53.163a.9.9,0,0,1,0,1.8,4.49,4.49,0,0,1-4.464-4.505h1.786A2.694,2.694,0,0,0,25,53.163Z" transform="translate(1.076 1)"/>
</svg>
