<svg xmlns="http://www.w3.org/2000/svg" width="25.204" height="18.903" viewBox="0 0 25.204 18.903">
  <defs>
    <style>
      .cls-1 {
        fill: #e8a622;
      }
    </style>
  </defs>
  <path id="image" class="cls-1" d="M22.841,64H2.363A2.363,2.363,0,0,0,0,66.363V80.54A2.363,2.363,0,0,0,2.363,82.9H22.841A2.363,2.363,0,0,0,25.2,80.54V66.363A2.363,2.363,0,0,0,22.841,64Zm-.3,16.54H2.658a.3.3,0,0,1-.3-.3V66.658a.3.3,0,0,1,.3-.3H22.545a.3.3,0,0,1,.3.3V80.244A.3.3,0,0,1,22.545,80.54ZM6.3,68.332A1.969,1.969,0,1,0,8.27,70.3,1.969,1.969,0,0,0,6.3,68.332ZM4.726,78.177H20.478V74.239L16.17,69.931a.591.591,0,0,0-.835,0L9.451,75.814,7.506,73.869a.591.591,0,0,0-.835,0L4.726,75.814Z" transform="translate(0 -64)"/>
</svg>
